HIERARCHY
ROOT Hips
{
	OFFSET 0.000000 0.000000 0.000000 
	CHANNELS 6 Xposition Yposition Zposition Zrotation Yrotation Xrotation
	JOINT LeftUpLeg
	{
		OFFSET 1.363060 -1.794630 0.839290 
		CHANNELS 3 Zrotation Yrotation Xrotation
		JOINT LeftLeg
		{
			OFFSET 2.448110 -6.726130 0.000000 
			CHANNELS 3 Zrotation Yrotation Xrotation
			JOINT LeftFoot
			{
				OFFSET 2.562200 -7.039590 0.000000 
				CHANNELS 3 Zrotation Yrotation Xrotation
				JOINT LeftToeBase
				{
					OFFSET 0.157640 -0.433110 2.322550 
					CHANNELS 3 Zrotation Yrotation Xrotation
					End Site
					{
						OFFSET 0.000000 0.000000 0.000000 
					}
				}
			}
		}
	}
	JOINT RightUpLeg
	{
		OFFSET -1.305520 -1.794630 0.839290 
		CHANNELS 3 Zrotation Yrotation Xrotation
		JOINT RightLeg
		{
			OFFSET -2.542530 -6.985550 0.000000 
			CHANNELS 3 Zrotation Yrotation Xrotation
			JOINT RightFoot
			{
				OFFSET -2.568260 -7.056230 0.000000 
				CHANNELS 3 Zrotation Yrotation Xrotation
				JOINT RightToeBase
				{
					OFFSET -0.164730 -0.452590 2.363150 
					CHANNELS 3 Zrotation Yrotation Xrotation
					End Site
					{
						OFFSET 0.000000 0.000000 0.000000 
					}
				}
			}
		}
	}
	JOINT Spine
	{
		OFFSET 0.028270 2.035590 -0.193380 
		CHANNELS 3 Zrotation Yrotation Xrotation
		JOINT Spine1
		{
			OFFSET 0.056720 2.048850 -0.042750 
			CHANNELS 3 Zrotation Yrotation Xrotation
			JOINT Neck1
			{
				OFFSET -0.054170 1.746240 0.172020 
				CHANNELS 3 Zrotation Yrotation Xrotation
				JOINT Head
				{
					OFFSET 0.104070 1.761360 -0.123970 
					CHANNELS 3 Zrotation Yrotation Xrotation
					End Site
					{
						OFFSET 0.000000 0.000000 0.000000 
					}
				}
			}
			JOINT LeftArm
			{
				OFFSET 3.362410 1.200890 -0.311210 
				CHANNELS 3 Zrotation Yrotation Xrotation
				JOINT LeftForeArm
				{
					OFFSET 4.983000 -0.000000 -0.000000 
					CHANNELS 3 Zrotation Yrotation Xrotation
					JOINT LeftHand
					{
						OFFSET 3.483560 -0.000000 -0.000000 
						CHANNELS 3 Zrotation Yrotation Xrotation
						JOINT LeftHandIndex1
						{
							OFFSET 0.715260 -0.000000 -0.000000 
							CHANNELS 3 Zrotation Yrotation Xrotation
							End Site
							{
								OFFSET 0.000000 0.000000 0.000000 
							}
						}
					}
				}
			}
			JOINT RightArm
			{
				OFFSET -3.136600 1.374050 -0.404650 
				CHANNELS 3 Zrotation Yrotation Xrotation
				JOINT RightForeArm
				{
					OFFSET -5.241900 -0.000000 -0.000000 
					CHANNELS 3 Zrotation Yrotation Xrotation
					JOINT RightHand
					{
						OFFSET -3.444170 -0.000000 -0.000000 
						CHANNELS 3 Zrotation Yrotation Xrotation
						JOINT RightHandIndex1
						{
							OFFSET -0.622530 -0.000000 -0.000000 
							CHANNELS 3 Zrotation Yrotation Xrotation
							End Site
							{
								OFFSET 0.000000 0.000000 0.000000 
							}
						}
					}
				}
			}
		}
	}
}
MOTION
Frames: 7
Frame Time: 0.041667
-0.130219 17.010886 12.913450 174.493880 -21.832580 -154.539019 -10.882346 2.836669 -3.070387 2.660598 9.279060 26.787871 0.083620 20.149331 32.897704 1.691900 -8.192500 -23.300200 29.344158 10.188778 -55.478934 -4.721941 -16.978116 44.835105 0.603533 -24.152804 -43.473526 -6.364700 -14.772700 46.428400 0.369727 -2.824238 -7.752512 -3.444389 -2.073815 -1.206973 10.434880 -18.439770 13.355980 3.332800 -8.944800 13.629900 -3.189199 -0.288804 -9.660136 15.004853 -18.982587 -2.119513 2.029608 4.955766 42.462927 -7.125000 0.000000 0.000000 5.705338 -2.991404 -21.060216 -16.372642 18.321748 -1.583101 -1.063751 0.008035 0.990174 7.125000 0.000000 0.000000 
-0.104381 17.025915 12.819053 174.427672 -20.589037 -155.329631 -10.189235 1.793309 -2.399955 2.621942 9.227680 26.915957 -0.021753 18.804275 31.677544 2.386800 -9.629100 -27.783900 29.082104 10.987706 -53.889400 -4.691581 -16.909351 44.736728 0.315658 -23.472414 -43.867280 -6.526700 -14.920000 47.060700 0.349898 -3.249537 -7.928484 -3.301342 -2.320072 -1.994264 10.474138 -17.828729 13.849569 3.401800 -8.736100 13.682500 -3.145278 -0.204525 -8.882817 15.085684 -18.871972 -2.037791 2.070629 4.517023 44.315325 -7.125000 0.000000 0.000000 5.909350 -4.274933 -21.395991 -16.291484 17.987575 -1.528031 -1.041202 0.069715 3.466694 7.125000 0.000000 0.000000 
-0.077411 17.029621 12.726201 174.431600 -19.321225 -156.030282 -9.424470 0.868982 -1.749351 2.562197 9.092510 26.709524 -0.599095 18.768974 29.156985 2.098000 -9.067200 -26.005800 29.149204 11.702729 -52.393390 -4.649088 -16.833076 44.580495 0.183826 -23.158529 -44.043446 -6.560600 -14.950400 47.192100 0.340205 -3.551956 -7.827283 -3.063382 -2.452093 -1.752127 10.683123 -17.321425 13.922598 3.572300 -8.563300 13.495800 -2.841141 -0.174846 -6.263878 15.385196 -19.291078 -2.097791 1.977825 4.498327 42.981860 -7.125000 0.000000 0.000000 5.996567 -5.638521 -21.629205 -16.270247 17.877887 -1.506816 -1.017787 0.092143 4.778215 7.125000 0.000000 0.000000 
-0.056411 17.040121 12.634173 174.506380 -18.220617 -156.792331 -8.549399 -0.045966 -1.103786 2.459352 8.853731 26.169238 -1.518310 19.574718 25.485285 1.379300 -7.431700 -21.000900 29.513072 11.996757 -50.839651 -4.580595 -16.704568 44.285556 0.125717 -22.891223 -43.976735 -6.535700 -14.928100 47.095800 0.309891 -3.906251 -7.798927 -3.048084 -2.641633 -1.837438 10.869081 -16.763506 14.050187 3.728100 -8.387400 13.257000 -2.408048 -0.120683 -2.471284 15.763849 -19.944534 -2.307857 1.768289 5.030434 39.288447 -7.125000 0.000000 0.000000 6.194512 -6.981406 -21.984748 -16.246076 17.768653 -1.488182 -0.984144 0.160718 6.261316 7.125000 0.000000 0.000000 
-0.023676 17.057621 12.545335 174.640034 -17.092627 -157.464432 -7.589161 -0.850424 -0.794299 2.293745 8.560888 25.471173 -2.067774 19.483788 22.588641 1.598500 -7.974200 -22.635800 29.736487 12.592204 -49.295585 -4.454996 -16.530324 43.796314 0.066423 -22.684538 -43.986843 -6.539600 -14.931600 47.110800 0.314906 -4.308946 -7.834715 -2.985493 -2.862089 -2.012862 10.934040 -16.096324 14.382360 3.772600 -8.138100 13.154300 -2.295812 -0.236957 -1.295348 15.757842 -19.871373 -2.273648 1.626451 4.952060 39.246194 -7.125000 0.000000 0.000000 6.427804 -8.321228 -21.638478 -16.418754 17.830273 -1.502476 -0.949687 0.207959 6.927216 7.125000 0.000000 0.000000 
0.015956 17.075944 12.463395 174.631010 -15.729329 -157.880836 -6.909059 -1.483356 -0.699003 2.111130 8.229050 24.615862 -3.031728 20.495782 18.083287 1.122200 -6.729000 -18.915000 29.623280 13.463220 -48.033093 -4.308290 -16.344021 43.194115 0.325751 -23.251923 -43.559411 -6.446100 -14.847100 46.746800 0.280242 -4.643932 -7.804184 -2.904312 -3.038198 -1.907448 11.020870 -15.562526 14.723281 3.756900 -7.876300 13.221100 -2.055943 -0.294426 0.169834 15.960791 -20.194088 -2.346678 1.311953 5.117175 37.225772 -7.125000 0.000000 0.000000 6.728987 -9.297436 -22.225077 -16.471776 17.816144 -1.504094 -0.937014 0.316454 7.732485 7.125000 0.000000 0.000000 
0.046014 17.099929 12.386189 174.623668 -14.266228 -158.254196 -6.414406 -2.093850 -0.718662 1.914512 7.915403 23.918590 -4.097655 21.440445 11.677166 0.308000 -3.568200 -9.865000 29.663622 14.045055 -46.879114 -4.170694 -16.142295 42.559880 0.802453 -24.155526 -42.627102 -6.241000 -14.657900 45.941400 0.253471 -4.931004 -7.771746 -2.830869 -3.188301 -1.774097 11.160651 -15.048820 14.917295 3.814300 -7.658200 13.176700 -2.044025 -0.299807 1.481694 16.175077 -20.506622 -2.421197 0.923070 5.276219 34.993349 -7.125000 0.000000 0.000000 6.881275 -10.264831 -22.834231 -16.480656 17.773616 -1.501716 -0.941650 0.369956 8.166150 7.125000 0.000000 0.000000 
